<svg width="29" height="41" viewBox="0 0 29 41" fill="none" xmlns="http://www.w3.org/2000/svg">
<g clip-path="url(#clip0_375_10167)">
<path d="M28.6949 11.2409C29.2519 13.7324 29.0364 16.3364 28.1454 18.734C28.0195 19.0717 27.8879 19.4075 27.7525 19.7415C26.5487 22.7113 24.9653 25.4917 23.2865 28.2195C20.8732 32.1405 18.231 35.9096 15.4476 39.5848C14.9077 40.2977 14.2229 40.3465 13.723 39.6824C9.83891 34.5306 6.13792 29.257 3.14661 23.5462C2.22518 21.7883 1.43156 19.9535 0.74478 18.0961C-0.613521 14.4228 -0.0316646 10.8751 1.84172 7.52439C4.74147 2.33514 10.4398 -0.460223 16.4568 0.265822C22.2429 0.963725 27.1267 5.20555 28.6052 10.8788C28.6357 10.9989 28.6663 11.119 28.693 11.2409H28.6949ZM18.9483 13.965C18.9426 11.5749 16.9853 9.64249 14.5605 9.63686C12.1148 9.63124 10.1422 11.5749 10.1461 13.9856C10.1499 16.3776 12.0996 18.3006 14.5338 18.3138C16.9738 18.3269 18.954 16.3776 18.9483 13.965Z" fill="#FF4747"/>
</g>
<defs>
<clipPath id="clip0_375_10167">
<rect width="29" height="40" fill="white" transform="translate(0 0.151367)"/>
</clipPath>
</defs>
</svg>
